<?xml version="1.0" encoding="UTF-8" standalone="no"?>
<!-- Created with Inkscape (http://www.inkscape.org/) -->

<svg
   width="265.9624mm"
   height="63.809635mm"
   viewBox="0 0 265.9624 63.809635"
   version="1.1"
   id="svg1"
   xml:space="preserve"
   xmlns="http://www.w3.org/2000/svg"
   xmlns:svg="http://www.w3.org/2000/svg"><defs
     id="defs1" /><g
     id="layer1"
     transform="translate(51.479782,-220.73254)"><path
       style="fill:#000000"
       d="m -25.950629,283.7264 c -22.297179,-4.69509 -32.685574,-29.91079 -20.113622,-48.82171 14.567219,-21.91222 48.7730252,-17.19746 56.569451,7.79726 7.278312,23.33368 -12.8579558,45.99341 -36.455829,41.02445 z m 10.490895,-5.69315 c 14.60929225,-2.52858 23.9651272,-15.82397 21.2408862,-30.185 -4.87928895,-25.72153 -40.3869482,-28.83056 -49.7095482,-4.35255 -7.039619,18.48367 8.974473,37.91161 28.468662,34.53755 z m -14.672787,-15.66464 c -5.921437,-0.78807 -9.391859,-7.59493 -7.049719,-13.82727 2.26797,-6.03498 10.881709,-7.80782 15.53109,-3.19655 1.797263,1.78253 1.765067,1.95767 -0.587505,3.19595 l -1.976569,1.04037 -0.804784,-0.97273 c -3.747262,-4.52928 -9.027008,1.57828 -6.328002,7.32017 1.312773,2.7928 4.695132,3.06545 6.771979,0.54587 l 0.805853,-0.97764 1.869035,0.99137 c 2.20525,1.1697 2.187605,1.46768 -0.214827,3.62767 -2.144119,1.92774 -4.816361,2.67869 -8.016551,2.25279 z m 18.432391,0.004 c -9.232951,-1.05157 -10.765913,-15.73215 -1.986292,-19.02232 3.535181,-1.32481 8.8632485,-0.16062 10.8719165,2.37553 1.1628167,1.46818 1.0634287,1.73597 -1.0368098,2.79363 -2.231645,1.12384 -2.1608967,1.12044 -2.7447595,0.13204 -2.2673496,-3.83832 -6.9191372,-1.25663 -6.9191372,3.84004 0,5.55202 4.0534497,7.79466 7.1965075,3.98159 l 0.8069297,-0.97895 1.8852605,0.9494 c 2.1719435,1.09378 2.0799745,0.92445 1.2133635,2.23399 -1.7719395,2.67758 -5.4317894,4.13359 -9.2869792,3.69467 z m 54.805751,21.84157 C 21.897203,281.13743 9.4134652,256.7727 19.463655,238.07174 c 15.528891,-28.89549 58.588774,-19.37653 59.936489,13.24976 0.817992,19.80246 -16.754015,35.72746 -36.294523,32.89268 z m 9.562555,-6.18408 c 14.024175,-2.81149 23.007912,-15.7638 20.625997,-29.73756 -4.242419,-24.88859 -37.479563,-29.63586 -48.822217,-6.97329 -9.41318,18.8075 7.52118,40.85565 28.19622,36.71085 z m -9.62449,-4.98428 c -0.243671,-0.15478 -0.34437,-2.11736 -0.396875,-7.73501 l -0.07036,-7.52761 -1.785938,-0.0782 -1.785937,-0.0782 v -6.34641 c 0,-9.29977 -0.586639,-8.72327 8.836878,-8.68429 9.301543,0.0385 8.624616,-0.63857 8.625211,8.62664 l 4.11e-4,6.40406 -1.785938,0.0782 -1.785937,0.0782 -0.07036,7.52761 c -0.08302,8.88211 0.51909,7.94241 -5.089018,7.94241 -2.401094,0 -4.512559,-0.0933 -4.692144,-0.2074 z m 2.707769,-32.38281 c -3.103818,-1.08461 -3.40961,-6.63064 -0.443209,-8.03829 2.667545,-1.26583 5.975634,-0.0433 6.67882,2.46825 1.127443,4.02684 -2.184828,6.98556 -6.235611,5.57004 z m 63.116415,43.18383 c -24.909272,-5.1571 -33.954374,-36.11971 -15.769455,-53.98095 21.854505,-21.46552 58.467865,-2.23959 53.474035,28.07957 -2.8703,17.42648 -20.41727,29.48047 -37.70458,25.90138 z m 11.07761,-5.85244 c 5.32666,-0.81412 11.21784,-4.20909 15.06949,-8.68425 1.68375,-1.95632 3.06538,-3.95292 2.87035,-4.14796 -0.19172,-0.19171 -11.62742,-5.16043 -11.68468,-5.07689 -0.0298,0.0435 -0.26193,0.63976 -0.51577,1.32496 -0.89114,2.40554 -3.59829,4.5758 -6.56852,5.26582 l -1.51219,0.35131 -0.0753,2.38936 -0.0753,2.38936 h -1.85208 -1.85208 l -0.0761,-2.44739 -0.0761,-2.4474 -0.98226,-0.003 c -2.16882,-0.007 -6.50251,-1.75345 -7.85577,-3.16596 l -0.65864,-0.68747 2.19486,-2.18346 2.19487,-2.18347 0.99944,0.79426 c 3.86349,3.07031 9.94819,2.52221 9.94819,-0.89612 0,-1.24672 -0.64731,-1.88866 -2.91042,-2.88631 -1.0914,-0.48112 -3.35359,-1.48669 -5.02708,-2.23459 -1.67349,-0.7479 -7.0313,-3.14046 -11.906255,-5.3168 l -8.86354,-3.95698 -0.31194,0.71054 c -1.87552,4.27218 -1.34427,13.08662 1.09962,18.24502 5.1787,10.93082 16.243095,16.70977 28.427175,14.84756 z m 20.86737,-20.89316 c 4.64311,-26.06214 -29.21843,-41.48282 -45.675585,-20.80084 -1.79797,2.25954 -2.12795,1.89377 4.31406,4.78195 6.658405,2.98518 5.903685,2.85711 6.889715,1.16918 1.0799,-1.84862 3.15695,-3.27587 5.42396,-3.72711 l 1.71979,-0.34231 0.1323,-2.37029 0.13229,-2.37029 h 1.85208 1.85208 l 0.1323,2.3601 0.13229,2.36009 1.82525,0.36793 c 1.72174,0.34705 4.14036,1.38572 5.3185,2.28402 0.51155,0.39004 0.46004,0.47328 -1.54738,2.50082 l -2.07654,2.09734 -1.62762,-0.81924 c -3.03158,-1.52589 -6.78535,-1.17098 -7.43547,0.70301 -0.39105,1.12724 0.0213,1.51464 3.01249,2.83031 1.48881,0.65484 7.66791,3.40967 13.73135,6.12185 12.65416,5.66021 11.44575,5.37031 11.89414,2.85348 z m 37.36257,27.10394 c -21.40013,-3.12458 -33.87674,-27.33517 -23.77426,-46.13344 14.48071,-26.94508 54.48791,-20.84085 59.61941,9.09664 3.63212,21.19001 -14.6937,40.12507 -35.84515,37.0368 z m 9.43026,-6.17508 c 21.11132,-4.23227 28.24875,-29.85418 12.43668,-44.64511 -13.319,-12.45885 -35.24378,-6.90572 -41.81648,10.59132 -6.8752,18.30232 10.05647,37.92761 29.3798,34.05379 z m -8.79237,-8.33638 c -5.27554,-1.14786 -9.46386,-5.59374 -10.32132,-10.95603 l -0.17379,-1.08678 h 3.97618 3.97618 l 0.32665,1.36165 c 1.33627,5.57019 10.02768,5.88159 12.6419,0.45294 4.57739,-9.50538 -1.43912,-19.77203 -9.47619,-16.17028 -2.75806,1.23601 -4.35277,4.83069 -2.14303,4.83069 h 0.94377 l -3.03407,3.0427 c -3.62969,3.64001 -2.7328,3.63069 -6.36209,0.0661 l -3.03062,-2.97656 1.17384,-0.13229 1.17385,-0.1323 0.42772,-1.71979 c 3.31463,-13.32749 22.47693,-14.17607 28.29923,-1.2532 6.08099,13.49702 -4.50663,27.69564 -18.39821,24.6731 z"
       id="path1" /></g></svg>
